<svg width="54" height="44" viewBox="0 0 54 44" fill="none" xmlns="http://www.w3.org/2000/svg">
    <path
        d="M47 8H48V7V4.5C48 3.57174 47.6313 2.68151 46.9749 2.02513C46.3185 1.36875 45.4283 1 44.5 1H7C3.69772 1 1 3.69772 1 7V37C1 38.5913 1.63214 40.1174 2.75736 41.2426C3.88258 42.3679 5.4087 43 7 43H47C48.5913 43 50.1174 42.3679 51.2426 41.2426C52.3679 40.1174 53 38.5913 53 37V12C53 11.0717 52.6313 10.1815 51.9749 9.52513C51.3185 8.86875 50.4283 8.5 49.5 8.5H8V8H47ZM45.1945 27.6945C44.6788 28.2103 43.9793 28.5 43.25 28.5C42.5207 28.5 41.8212 28.2103 41.3055 27.6945C40.7897 27.1788 40.5 26.4793 40.5 25.75C40.5 25.0207 40.7897 24.3212 41.3055 23.8055C41.8212 23.2897 42.5207 23 43.25 23C43.9793 23 44.6788 23.2897 45.1945 23.8055C45.7103 24.3212 46 25.0207 46 25.75C46 26.4793 45.7103 27.1788 45.1945 27.6945Z"
        fill="#222831" stroke="#00ADB5" stroke-width="2" />
    <path
        d="M12.636 29C13.148 28.504 13.636 28.016 14.1 27.536C14.564 27.056 14.98 26.592 15.348 26.144C15.724 25.696 16.02 25.264 16.236 24.848C16.452 24.424 16.56 24.016 16.56 23.624C16.56 23.36 16.516 23.136 16.428 22.952C16.34 22.76 16.224 22.604 16.08 22.484C15.944 22.364 15.788 22.276 15.612 22.22C15.436 22.156 15.256 22.124 15.072 22.124C14.808 22.124 14.584 22.168 14.4 22.256C14.216 22.336 14.064 22.444 13.944 22.58C13.832 22.716 13.748 22.86 13.692 23.012C13.644 23.164 13.62 23.316 13.62 23.468C13.62 23.732 13.66 23.972 13.74 24.188C13.82 24.396 13.936 24.58 14.088 24.74L13.368 25.376C13.184 25.256 13.024 25.088 12.888 24.872C12.76 24.656 12.66 24.424 12.588 24.176C12.524 23.92 12.492 23.692 12.492 23.492C12.492 23.06 12.596 22.656 12.804 22.28C13.02 21.896 13.332 21.588 13.74 21.356C14.156 21.124 14.66 21.008 15.252 21.008C15.756 21.008 16.196 21.124 16.572 21.356C16.948 21.588 17.24 21.896 17.448 22.28C17.656 22.656 17.76 23.072 17.76 23.528C17.76 23.928 17.68 24.32 17.52 24.704C17.36 25.088 17.144 25.468 16.872 25.844C16.608 26.22 16.312 26.592 15.984 26.96C15.664 27.32 15.344 27.684 15.024 28.052L14.52 27.884H18.024V29H12.636ZM22.2831 29.036C21.7951 29.036 21.3471 28.944 20.9391 28.76C20.5311 28.576 20.1791 28.312 19.8831 27.968C19.5951 27.616 19.3711 27.192 19.2111 26.696C19.0511 26.2 18.9711 25.644 18.9711 25.028C18.9711 24.356 19.0471 23.772 19.1991 23.276C19.3511 22.772 19.5711 22.352 19.8591 22.016C20.1551 21.68 20.5071 21.432 20.9151 21.272C21.3231 21.104 21.7791 21.02 22.2831 21.02C22.7711 21.02 23.2151 21.112 23.6151 21.296C24.0231 21.48 24.3711 21.748 24.6591 22.1C24.9551 22.444 25.1831 22.864 25.3431 23.36C25.5111 23.848 25.5951 24.404 25.5951 25.028C25.5951 25.66 25.5111 26.224 25.3431 26.72C25.1831 27.216 24.9551 27.636 24.6591 27.98C24.3711 28.324 24.0231 28.588 23.6151 28.772C23.2151 28.948 22.7711 29.036 22.2831 29.036ZM22.2711 27.92C22.7351 27.92 23.1231 27.8 23.4351 27.56C23.7551 27.312 23.9951 26.968 24.1551 26.528C24.3151 26.088 24.3951 25.58 24.3951 25.004C24.3951 24.428 24.3151 23.928 24.1551 23.504C23.9951 23.072 23.7551 22.736 23.4351 22.496C23.1231 22.256 22.7351 22.136 22.2711 22.136C21.8071 22.136 21.4191 22.26 21.1071 22.508C20.7951 22.748 20.5591 23.084 20.3991 23.516C20.2471 23.948 20.1711 24.452 20.1711 25.028C20.1711 25.596 20.2471 26.1 20.3991 26.54C20.5591 26.972 20.7951 27.312 21.1071 27.56C21.4191 27.8 21.8071 27.92 22.2711 27.92ZM29.7596 29.036C29.2716 29.036 28.8236 28.944 28.4156 28.76C28.0076 28.576 27.6556 28.312 27.3596 27.968C27.0716 27.616 26.8476 27.192 26.6876 26.696C26.5276 26.2 26.4476 25.644 26.4476 25.028C26.4476 24.356 26.5236 23.772 26.6756 23.276C26.8276 22.772 27.0476 22.352 27.3356 22.016C27.6316 21.68 27.9836 21.432 28.3916 21.272C28.7996 21.104 29.2556 21.02 29.7596 21.02C30.2476 21.02 30.6916 21.112 31.0916 21.296C31.4996 21.48 31.8476 21.748 32.1356 22.1C32.4316 22.444 32.6596 22.864 32.8196 23.36C32.9876 23.848 33.0716 24.404 33.0716 25.028C33.0716 25.66 32.9876 26.224 32.8196 26.72C32.6596 27.216 32.4316 27.636 32.1356 27.98C31.8476 28.324 31.4996 28.588 31.0916 28.772C30.6916 28.948 30.2476 29.036 29.7596 29.036ZM29.7476 27.92C30.2116 27.92 30.5996 27.8 30.9116 27.56C31.2316 27.312 31.4716 26.968 31.6316 26.528C31.7916 26.088 31.8716 25.58 31.8716 25.004C31.8716 24.428 31.7916 23.928 31.6316 23.504C31.4716 23.072 31.2316 22.736 30.9116 22.496C30.5996 22.256 30.2116 22.136 29.7476 22.136C29.2836 22.136 28.8956 22.26 28.5836 22.508C28.2716 22.748 28.0356 23.084 27.8756 23.516C27.7236 23.948 27.6476 24.452 27.6476 25.028C27.6476 25.596 27.7236 26.1 27.8756 26.54C28.0356 26.972 28.2716 27.312 28.5836 27.56C28.8956 27.8 29.2836 27.92 29.7476 27.92Z"
        fill="white" />
</svg>